<?xml version="1.0" encoding="UTF-8" standalone="no"?>
<svg
   xmlns:dc="http://purl.org/dc/elements/1.1/"
   xmlns:cc="http://creativecommons.org/ns#"
   xmlns:rdf="http://www.w3.org/1999/02/22-rdf-syntax-ns#"
   xmlns:svg="http://www.w3.org/2000/svg"
   xmlns="http://www.w3.org/2000/svg"
   xmlns:sodipodi="http://sodipodi.sourceforge.net/DTD/sodipodi-0.dtd"
   xmlns:inkscape="http://www.inkscape.org/namespaces/inkscape"
   width="24"
   height="24"
   fill="none"
   viewBox="0 0 24 24"
   version="1.1"
   id="svg4"
   sodipodi:docname="ic_fluent_clipboard_paste_24_regular.svg"
   inkscape:version="1.0.1 (3bc2e813f5, 2020-09-07)">
  <metadata
     id="metadata10">
    <rdf:RDF>
      <cc:Work
         rdf:about="">
        <dc:format>image/svg+xml</dc:format>
        <dc:type
           rdf:resource="http://purl.org/dc/dcmitype/StillImage" />
      </cc:Work>
    </rdf:RDF>
  </metadata>
  <defs
     id="defs8" />
  <sodipodi:namedview
     pagecolor="#ffffff"
     bordercolor="#666666"
     borderopacity="1"
     objecttolerance="10"
     gridtolerance="10"
     guidetolerance="10"
     inkscape:pageopacity="0"
     inkscape:pageshadow="2"
     inkscape:window-width="1920"
     inkscape:window-height="1017"
     id="namedview6"
     showgrid="false"
     inkscape:zoom="35.416667"
     inkscape:cx="12"
     inkscape:cy="12"
     inkscape:window-x="-8"
     inkscape:window-y="-8"
     inkscape:window-maximized="1"
     inkscape:current-layer="svg4" />
  <path
     d="M12.753 2c1.158 0 2.111.875 2.234 2h1.763a2.25 2.25 0 0 1 2.245 2.096L19 6.25a.75.75 0 0 1-.647.742L18.249 7a.75.75 0 0 1-.742-.647L17.5 6.25a.75.75 0 0 0-.648-.743L16.75 5.5h-2.132a2.244 2.244 0 0 1-1.865.993H9.247c-.777 0-1.461-.393-1.865-.992L5.25 5.5a.75.75 0 0 0-.743.648L4.5 6.25v13.505c0 .38.282.693.648.743l.102.007h3a.75.75 0 0 1 .743.647l.007.102a.75.75 0 0 1-.75.75h-3a2.25 2.25 0 0 1-2.245-2.095L3 19.755V6.25a2.25 2.25 0 0 1 2.096-2.245L5.25 4h1.763a2.247 2.247 0 0 1 2.234-2h3.506Zm5.997 6a2.25 2.25 0 0 1 2.245 2.096l.005.154v9.5a2.25 2.25 0 0 1-2.096 2.245L18.75 22h-6.5a2.25 2.25 0 0 1-2.245-2.096L10 19.75v-9.5a2.25 2.25 0 0 1 2.096-2.245L12.25 8h6.5Zm0 1.5h-6.5a.75.75 0 0 0-.743.648l-.007.102v9.5c0 .38.282.694.648.743l.102.007h6.5a.75.75 0 0 0 .743-.648l.007-.102v-9.5a.75.75 0 0 0-.648-.743L18.75 9.5Zm-5.997-6H9.247a.747.747 0 0 0 0 1.493h3.506a.747.747 0 1 0 0-1.493Z"
     fill="#212121"
     id="path2"
     style="fill:#ffffff;fill-opacity:1" />
</svg>
