<?xml version="1.0" encoding="UTF-8" standalone="no"?>
<svg
   xmlns:dc="http://purl.org/dc/elements/1.1/"
   xmlns:cc="http://creativecommons.org/ns#"
   xmlns:rdf="http://www.w3.org/1999/02/22-rdf-syntax-ns#"
   xmlns:svg="http://www.w3.org/2000/svg"
   xmlns="http://www.w3.org/2000/svg"
   xmlns:sodipodi="http://sodipodi.sourceforge.net/DTD/sodipodi-0.dtd"
   xmlns:inkscape="http://www.inkscape.org/namespaces/inkscape"
   width="24"
   height="24"
   fill="none"
   viewBox="0 0 24 24"
   version="1.1"
   id="svg6"
   sodipodi:docname="ic_fluent_cut_24_regular.svg"
   inkscape:version="1.0.1 (3bc2e813f5, 2020-09-07)">
  <metadata
     id="metadata12">
    <rdf:RDF>
      <cc:Work
         rdf:about="">
        <dc:format>image/svg+xml</dc:format>
        <dc:type
           rdf:resource="http://purl.org/dc/dcmitype/StillImage" />
      </cc:Work>
    </rdf:RDF>
  </metadata>
  <defs
     id="defs10" />
  <sodipodi:namedview
     pagecolor="#ffffff"
     bordercolor="#666666"
     borderopacity="1"
     objecttolerance="10"
     gridtolerance="10"
     guidetolerance="10"
     inkscape:pageopacity="0"
     inkscape:pageshadow="2"
     inkscape:window-width="1920"
     inkscape:window-height="1017"
     id="namedview8"
     showgrid="false"
     inkscape:zoom="35.416667"
     inkscape:cx="12"
     inkscape:cy="12"
     inkscape:window-x="-8"
     inkscape:window-y="-8"
     inkscape:window-maximized="1"
     inkscape:current-layer="svg6" />
  <path
     d="M12.14 9.341v.002L7.37 2.328a.75.75 0 1 0-1.24.844l5.13 7.545-2.395 3.743a4 4 0 1 0 1.178.943l2.135-3.337 2.065 3.036a4 4 0 1 0 1.261-.813l-2.447-3.597.002-.002-.918-1.348Zm-7.64 8.66a2.5 2.5 0 1 1 5 0 2.5 2.5 0 0 1-5 0Zm10 0a2.5 2.5 0 1 1 5 0 2.5 2.5 0 0 1-5 0Z"
     fill="#212121"
     id="path2"
     style="fill:#ffffff;fill-opacity:1" />
  <path
     d="m13.938 9.316 3.943-6.162a.75.75 0 1 0-1.263-.808L13.02 7.968l.918 1.348Z"
     fill="#212121"
     id="path4"
     style="fill:#ffffff;fill-opacity:1" />
</svg>
